name analog
datacolumns 19
datarows 35
range 0.4515 0.4685
endheader
time	ground_force_vx	ground_force_vy	ground_force_vz	ground_force_px	ground_force_py	ground_force_pz	l_ground_force_vx	l_ground_force_vy	l_ground_force_vz	l_ground_force_px	l_ground_force_py	l_ground_force_pz	ground_torque_x	ground_torque_y	ground_torque_z	l_ground_torque_x	l_ground_torque_y	l_ground_torque_z
0.4515	-0.0	-0.0	-0.0	-0.0	-0.0	-0.0	-0.115255668759346	2.2681281566619877	-870.6724853515625	-0.0	-0.0	-0.0	-0.0	-0.0	-0.0	233975.375	4790.59619140625	-671.6884155273438
0.452	-0.0	-0.0	-0.0	-0.0	-0.0	-0.0	0.8268395066261292	3.1195766925811768	-871.7196655273438	-0.0	-0.0	-0.0	-0.0	-0.0	-0.0	234590.390625	4785.919921875	-621.564453125
0.4525	-0.0	-0.0	-0.0	-0.0	-0.0	-0.0	1.5983093976974487	3.5313587188720703	-874.968017578125	-0.0	-0.0	-0.0	-0.0	-0.0	-0.0	235229.890625	4984.12158203125	-373.03521728515625
0.453	-0.0	-0.0	-0.0	-0.0	-0.0	-0.0	1.8629264831542969	3.738094806671143	-874.7378540039062	-0.0	-0.0	-0.0	-0.0	-0.0	-0.0	235898.609375	4941.3203125	-333.6304016113281
0.4535	-0.0	-0.0	-0.0	-0.0	-0.0	-0.0	1.7154641151428225	2.8262939453125	-875.3184814453125	-0.0	-0.0	-0.0	-0.0	-0.0	-0.0	236301.78125	5185.5400390625	-353.2502136230469
0.454	-0.0	-0.0	-0.0	-0.0	-0.0	-0.0	0.680743932723999	2.502760410308838	-876.8336181640625	-0.0	-0.0	-0.0	-0.0	-0.0	-0.0	236275.53125	5903.06396484375	-453.5187683105469
0.4545	-0.0	-0.0	-0.0	-0.0	-0.0	-0.0	-0.5032384395599365	1.7053860425949097	-877.8846435546875	-0.0	-0.0	-0.0	-0.0	-0.0	-0.0	236629.59375	6633.23876953125	-860.181884765625
0.455	-0.0	-0.0	-0.0	-0.0	-0.0	-0.0	-2.1594815254211426	0.0006365999579429	-878.8145751953125	-0.0	-0.0	-0.0	-0.0	-0.0	-0.0	236900.84375	7142.6484375	-1118.5960693359375
0.4555	-0.0	-0.0	-0.0	-0.0	-0.0	-0.0	-3.696144580841065	-1.1777600049972534	-876.7213745117188	-0.0	-0.0	-0.0	-0.0	-0.0	-0.0	236743.5625	7677.830078125	-1416.8675537109375
0.456	-0.0	-0.0	-0.0	-0.0	-0.0	-0.0	-4.849134922027588	-1.9726141691207888	-876.8353271484375	-0.0	-0.0	-0.0	-0.0	-0.0	-0.0	236897.90625	8292.4716796875	-1714.5435791015625
0.4565	-0.0	-0.0	-0.0	-0.0	-0.0	-0.0	-5.707212924957275	-2.266885280609131	-876.8362426757812	-0.0	-0.0	-0.0	-0.0	-0.0	-0.0	236870.359375	8788.216796875	-1932.8355712890625
0.457	-0.0	-0.0	-0.0	-0.0	-0.0	-0.0	-6.357421875	-1.9723708629608157	-876.3709716796875	-0.0	-0.0	-0.0	-0.0	-0.0	-0.0	236875.6875	9217.3486328125	-2239.700927734375
0.4575	-0.0	-0.0	-0.0	-0.0	-0.0	-0.0	-6.623816967010498	-2.8558905124664307	-876.4866943359375	-0.0	-0.0	-0.0	-0.0	-0.0	-0.0	237144.625	9687.46484375	-2240.10107421875
0.458	-0.0	-0.0	-0.0	-0.0	-0.0	-0.0	-6.298465728759766	-2.385143280029297	-876.2529296875	-0.0	-0.0	-0.0	-0.0	-0.0	-0.0	237448.828125	10325.9990234375	-2279.225830078125
0.4585	-0.0	-0.0	-0.0	-0.0	-0.0	-0.0	-6.032918453216553	-1.6781120300292969	-876.0167846679688	-0.0	-0.0	-0.0	-0.0	-0.0	-0.0	237849.0	10282.4794921875	-2259.183837890625
0.459	-0.0	-0.0	-0.0	-0.0	-0.0	-0.0	-5.557179927825928	-0.7380344867706299	-876.2491455078125	-0.0	-0.0	-0.0	-0.0	-0.0	-0.0	238501.421875	10329.10546875	-2317.680419921875
0.4595	-0.0	-0.0	-0.0	-0.0	-0.0	-0.0	-4.702657699584961	0.0863584578037262	-879.1676635742188	-0.0	-0.0	-0.0	-0.0	-0.0	-0.0	239096.1875	10357.5712890625	-2277.345947265625
0.46	-0.0	-0.0	-0.0	-0.0	-0.0	-0.0	-3.312610626220703	1.3829683065414429	-880.9095458984375	-0.0	-0.0	-0.0	-0.0	-0.0	-0.0	240060.25	10083.7666015625	-1990.6109619140625
0.4605	-0.0	-0.0	-0.0	-0.0	-0.0	-0.0	-2.5142979621887207	2.765768527984619	-882.0765991210938	-0.0	-0.0	-0.0	-0.0	-0.0	-0.0	240756.046875	9933.6181640625	-1829.6778564453125
0.461	-0.0	-0.0	-0.0	-0.0	-0.0	-0.0	-1.8309167623519895	3.5907771587371826	-884.5097045898438	-0.0	-0.0	-0.0	-0.0	-0.0	-0.0	241305.4375	10049.8837890625	-1908.6134033203125
0.4615	-0.0	-0.0	-0.0	-0.0	-0.0	-0.0	-2.1903867721557617	4.827163219451904	-884.8773193359375	-0.0	-0.0	-0.0	-0.0	-0.0	-0.0	241304.625	10225.6064453125	-1928.4942626953125
0.462	-0.0	-0.0	-0.0	-0.0	-0.0	-0.0	-1.747132658958435	5.621909141540527	-884.9927368164062	-0.0	-0.0	-0.0	-0.0	-0.0	-0.0	240929.5	10191.9736328125	-1919.5445556640625
0.4625	-0.0	-0.0	-0.0	-0.0	-0.0	-0.0	-1.4771854877471924	6.120993137359619	-885.213134765625	-0.0	-0.0	-0.0	-0.0	-0.0	-0.0	240902.078125	10266.435546875	-1858.664306640625
0.463	-0.0	-0.0	-0.0	-0.0	-0.0	-0.0	-1.8629264831542969	6.21339750289917	-884.6366577148438	-0.0	-0.0	-0.0	-0.0	-0.0	-0.0	240675.484375	10359.998046875	-1829.2708740234373
0.4635	-0.0	-0.0	-0.0	-0.0	-0.0	-0.0	-1.7406569719314575	5.47832727432251	-882.5609130859375	-0.0	-0.0	-0.0	-0.0	-0.0	-0.0	240273.90625	10718.4033203125	-1956.8729248046875
0.464	-0.0	-0.0	-0.0	-0.0	-0.0	-0.0	-2.129058837890625	5.096560955047607	-883.00439453125	-0.0	-0.0	-0.0	-0.0	-0.0	-0.0	239794.125	10945.4287109375	-1751.2403564453125
0.4645	-0.0	-0.0	-0.0	-0.0	-0.0	-0.0	-2.569918155670166	3.678281545639038	-881.1351928710938	-0.0	-0.0	-0.0	-0.0	-0.0	-0.0	239055.9375	11370.6494140625	-1880.2166748046875
0.465	-0.0	-0.0	-0.0	-0.0	-0.0	-0.0	-3.456800937652588	1.94598388671875	-879.388916015625	-0.0	-0.0	-0.0	-0.0	-0.0	-0.0	238111.375	11589.7392578125	-2048.782958984375
0.4655	-0.0	-0.0	-0.0	-0.0	-0.0	-0.0	-3.87776517868042	0.1167514696717262	-880.3715209960938	-0.0	-0.0	-0.0	-0.0	-0.0	-0.0	237406.46875	11643.6357421875	-1942.476318359375
0.466	-0.0	-0.0	-0.0	-0.0	-0.0	-0.0	-3.956964015960693	-1.5614352226257324	-879.4136962890625	-0.0	-0.0	-0.0	-0.0	-0.0	-0.0	236749.15625	12237.2666015625	-1941.990478515625
0.4665	-0.0	-0.0	-0.0	-0.0	-0.0	-0.0	-4.971249580383301	-3.038095235824585	-878.3535766601562	-0.0	-0.0	-0.0	-0.0	-0.0	-0.0	236233.546875	12513.4130859375	-1929.013427734375
0.467	-0.0	-0.0	-0.0	-0.0	-0.0	-0.0	-6.507837295532227	-4.094607830047607	-879.736328125	-0.0	-0.0	-0.0	-0.0	-0.0	-0.0	235896.90625	13087.3017578125	-2171.143310546875
0.4675	-0.0	-0.0	-0.0	-0.0	-0.0	-0.0	-6.887341022491455	-5.05496072769165	-879.2752075195312	-0.0	-0.0	-0.0	-0.0	-0.0	-0.0	235178.671875	13105.7626953125	-2212.05517578125
0.468	-0.0	-0.0	-0.0	-0.0	-0.0	-0.0	-6.649339199066162	-5.720691204071045	-878.1475219726562	-0.0	-0.0	-0.0	-0.0	-0.0	-0.0	234575.578125	13277.2333984375	-2151.4384765625
0.4685	-0.0	-0.0	-0.0	-0.0	-0.0	-0.0	-6.439492225646973	-6.913095951080322	-877.1637573242188	-0.0	-0.0	-0.0	-0.0	-0.0	-0.0	233986.71875	13108.80859375	-1985.7640380859373
